PathFileType	4	(X/Y/Z)	/Users/itak/Documents/Research/Walk-IL/dataset/trc/00541_00009.trc
DataRate	CameraRate	NumFrames	NumMarkers	Units	OrigDataRate	OrigDataStartFrame	OrigNumFrames
100.000000	100.000000	4	53	mm	100.000000	109	878
Frame#	Time	RPSI			LPSI			L3			STRN			T10			C7			CLAV			RBAK			LBAK			LSHO			LUPA			LAEL			LAOL			LWTS			LWPS			LFRA			LIFD			LHPS			LHTS			RSHO			RUPA			RAEL			RAOL			RWTS			RWPS			RFRA			RIFD			RHTS			RHPS			RBHD			LFHD			RFHD			LBHD			LHIP			RHIP			RASI			LASI			LKNE			LTHI			LANK			LTIP			LTOE			LMT1			LMT5			LHEE			RKNE			RTHI			RANK			RTIP			RTOE			RMT1			RMT5			RHEE			
		X1	Y1	Z1	X2	Y2	Z2	X3	Y3	Z3	X4	Y4	Z4	X5	Y5	Z5	X6	Y6	Z6	X7	Y7	Z7	X8	Y8	Z8	X9	Y9	Z9	X10	Y10	Z10	X11	Y11	Z11	X12	Y12	Z12	X13	Y13	Z13	X14	Y14	Z14	X15	Y15	Z15	X16	Y16	Z16	X17	Y17	Z17	X18	Y18	Z18	X19	Y19	Z19	X20	Y20	Z20	X21	Y21	Z21	X22	Y22	Z22	X23	Y23	Z23	X24	Y24	Z24	X25	Y25	Z25	X26	Y26	Z26	X27	Y27	Z27	X28	Y28	Z28	X29	Y29	Z29	X30	Y30	Z30	X31	Y31	Z31	X32	Y32	Z32	X33	Y33	Z33	X34	Y34	Z34	X35	Y35	Z35	X36	Y36	Z36	X37	Y37	Z37	X38	Y38	Z38	X39	Y39	Z39	X40	Y40	Z40	X41	Y41	Z41	X42	Y42	Z42	X43	Y43	Z43	X44	Y44	Z44	X45	Y45	Z45	X46	Y46	Z46	X47	Y47	Z47	X48	Y48	Z48	X49	Y49	Z49	X50	Y50	Z50	X51	Y51	Z51	X52	Y52	Z52	X53	Y53	Z53	

110	1.09	-758.61328125	1023.209167480469	406.2818603515625	-743.2550048828125	1027.331665039062	273.3324890136719	-745.3976440429688	1108.330200195312	336.8040466308594	-520.60400390625	1297.97314453125	346.4411315917969	-760.4343872070312	1234.174072265625	335.4635314941406	-721.0732421875	1508.121704101562	348.6664428710938	-543.6904907226562	1408.89453125	345.11376953125	-792.2750854492188	1381.328979492188	432.4313659667969	-749.2713012695312	1453.873657226562	255.5759582519531	-648.550048828125	1480.806640625	178.2046966552734	-654.2716064453125	1354.295776367188	97.25118255615234	-628.3899536132812	1132.283325195312	79.61177062988281	-719.2115478515625	1123.417114257812	123.4560241699219	-535.4740600585938	892.152099609375	136.0318298339844	-574.8327026367188	867.4734497070312	62.37800979614258	-603.5081787109375	1046.813842773438	75.88594818115234	-535.713623046875	721.3135375976562	135.1880798339844	-565.83984375	807.1500244140625	72.01617431640625	-516.568359375	814.809326171875	118.6275634765625	-666.5089111328125	1469.795776367188	505.6733093261719	-686.21435546875	1404.810668945312	573.5211791992188	-682.4481201171875	1113.570556640625	614.9765014648438	-735.5560302734375	1095.552734375	586.7456665039062	-546.4925537109375	894.1834106445312	573.7334594726562	-590.4542236328125	873.4743041992188	640.845947265625	-670.6251220703125	1058.713623046875	623.6829833984375	-534.7993774414062	721.3355712890625	577.2908935546875	-517.1447143554688	802.6177368164062	588.8746948242188	-571.9505004882812	799.7086791992188	639.35205078125	-663.5059204101562	1688.350952148438	410.9400329589844	-495.8159484863281	1720.98974609375	292.5501403808594	-527.988525390625	1720.068359375	433.1400451660156	-619.0842895507812	1689.447631835938	251.0015869140625	-608.0005493164062	940.7706909179688	156.9428253173828	-651.9557495117188	942.7927856445312	539.1984252929688	-557.918212890625	969.9336547851562	488.8780822753906	-533.6815185546875	961.7548828125	213.7722473144531	-609.7966918945312	493.9766235351562	217.8146514892578	-598.0761108398438	658.7406005859375	178.3882141113281	-692.2835693359375	32.61882400512695	222.6142425537109	-675.4256591796875	251.7527618408203	209.6932525634766	-486.3652954101562	39.5927734375	293.828125	-560.9754028320312	41.60547637939453	324.8781127929688	-568.4752197265625	35.23416137695312	217.2900848388672	-765.3328857421875	36.6007194519043	272.6853942871094	-642.416015625	496.4494323730469	490.3533325195312	-619.9368896484375	785.9090576171875	537.9830322265625	-726.8592529296875	37.32469177246094	465.328369140625	-645.7221069335938	354.6945495605469	476.6278991699219	-503.6730041503906	40.42127990722656	439.7626037597656	-565.1610107421875	39.72151184082031	394.4344787597656	-594.4464721679688	38.15959167480469	494.6562194824219	-777.3486938476562	31.3155460357666	404.99853515625	
111	1.1	-758.5155639648438	1023.178894042969	405.9475708007812	-743.1802368164062	1027.29638671875	273.0372924804688	-745.3472900390625	1108.322998046875	336.49560546875	-520.4410400390625	1297.915893554688	346.0682067871094	-760.3591918945312	1234.186401367188	335.1188354492188	-720.9393310546875	1508.106323242188	348.3203125	-543.612548828125	1408.85791015625	344.7788391113281	-792.14599609375	1381.361694335938	432.0967712402344	-749.1461181640625	1453.89306640625	255.1873626708984	-648.4227905273438	1480.768676757812	177.8662872314453	-654.1138916015625	1354.218872070312	96.95018768310547	-628.298583984375	1132.273559570312	79.33460998535156	-719.1644287109375	1123.4365234375	123.1958618164062	-535.353759765625	892.1663208007812	135.8620452880859	-574.691162109375	867.5108642578125	62.16193389892578	-603.4497680664062	1046.757080078125	75.63966369628906	-535.4860229492188	721.2173461914062	135.0513610839844	-565.6912231445312	807.0758056640625	71.87516784667969	-516.5020751953125	814.7861328125	118.4426498413086	-666.36865234375	1469.791137695312	505.2308349609375	-686.0681762695312	1404.802978515625	573.1881103515625	-682.3062133789062	1113.599853515625	614.6697998046875	-735.4168701171875	1095.569458007812	586.4053344726562	-546.39208984375	894.2216186523438	573.4955444335938	-590.3731079101562	873.4822998046875	640.57275390625	-670.4923706054688	1058.6982421875	623.2662353515625	-534.8169555664062	721.3135375976562	577.065185546875	-517.0203857421875	802.6796875	588.5553588867188	-571.9430541992188	799.71630859375	639.1282348632812	-663.3244018554688	1688.311889648438	410.5829162597656	-495.7228393554688	1721.03759765625	292.2353820800781	-527.8389282226562	1720.0458984375	432.7520141601562	-618.9420776367188	1689.435668945312	250.6396789550781	-607.8634643554688	940.7959594726562	156.6837768554688	-651.8004150390625	942.7981567382812	538.8796997070312	-557.8766479492188	969.921142578125	488.5811767578125	-533.5374145507812	961.8516235351562	213.5129699707031	-609.6666259765625	493.9812927246094	217.6861267089844	-597.8140869140625	658.6984252929688	178.2050018310547	-692.272705078125	32.62037658691406	222.6150665283203	-675.3868408203125	251.7205810546875	209.6356658935547	-486.3703918457031	39.58730316162109	293.8307495117188	-560.96484375	41.61240768432617	324.8739318847656	-568.4699096679688	35.23386001586914	217.2864074707031	-765.3471069335938	36.61528015136719	272.7261962890625	-642.35595703125	496.4844665527344	490.2463989257812	-619.9382934570312	785.9708862304688	537.8092041015625	-726.8619995117188	37.30229949951172	465.359130859375	-645.6793823242188	354.6948547363281	476.5346984863281	-503.6767272949219	40.42229843139648	439.7646179199219	-565.1651611328125	39.73931503295898	394.4384460449219	-594.447265625	38.15676498413086	494.6710815429688	-777.3492431640625	31.31609153747559	405.0094299316406	
112	1.11	-758.4273071289062	1023.157409667969	405.6055297851562	-743.10107421875	1027.258666992188	272.7227172851562	-745.272705078125	1108.31640625	336.1473693847656	-520.2698364257812	1297.858154296875	345.6760864257812	-760.2681274414062	1234.199829101562	334.7408447265625	-720.8037109375	1508.090942382812	347.9556884765625	-543.52490234375	1408.8212890625	344.4242553710938	-792.0006103515625	1381.402465820312	431.7328186035156	-749.0134887695312	1453.91796875	254.7826843261719	-648.2811279296875	1480.72998046875	177.5068511962891	-653.9453735351562	1354.139770507812	96.65879821777344	-628.218994140625	1132.263305664062	79.03422546386719	-719.1375732421875	1123.45751953125	122.9374465942383	-535.2279663085938	892.1787719726562	135.6802978515625	-574.5616455078125	867.522216796875	61.93046569824219	-603.4008178710938	1046.6875	75.36049652099609	-535.1929931640625	721.1095581054688	134.8638305664062	-565.5377197265625	807.0143432617188	71.73697662353516	-516.46240234375	814.7459106445312	118.2606506347656	-666.2242431640625	1469.794311523438	504.7713623046875	-685.9098510742188	1404.807861328125	572.8240966796875	-682.1727294921875	1113.639526367188	614.34814453125	-735.2850341796875	1095.598754882812	586.0593872070312	-546.290771484375	894.2615966796875	573.2492065429688	-590.3036499023438	873.5	640.2780151367188	-670.3807983398438	1058.692260742188	622.8487548828125	-534.8218994140625	721.29833984375	576.8202514648438	-516.8435668945312	802.7346801757812	588.2562255859375	-571.9288330078125	799.735595703125	638.8626708984375	-663.1397094726562	1688.269775390625	410.2170104980469	-495.6106262207031	1721.083740234375	291.901123046875	-527.6826171875	1720.011352539062	432.3652038574219	-618.8073120117188	1689.43994140625	250.2574462890625	-607.6854248046875	940.8243408203125	156.3788604736328	-651.6515502929688	942.8032836914062	538.5365600585938	-557.8509521484375	969.9135131835938	488.2773742675781	-533.3368530273438	961.9425659179688	213.2392578125	-609.5525512695312	493.9683837890625	217.5508575439453	-597.5996704101562	658.669189453125	178.0390930175781	-692.2638549804688	32.62063980102539	222.6143341064453	-675.3743896484375	251.6969299316406	209.5516357421875	-486.3753051757812	39.58158874511719	293.8334350585938	-560.9530029296875	41.6199951171875	324.8690795898438	-568.4659423828125	35.23332595825195	217.2835540771484	-765.3633422851562	36.62868499755859	272.7662353515625	-642.2913208007812	496.5234680175781	490.125	-619.9453125	786.0320434570312	537.60595703125	-726.86572265625	37.2844352722168	465.3838500976562	-645.6365356445312	354.6956787109375	476.4287719726562	-503.6792297363281	40.42374420166016	439.7660827636719	-565.1682739257812	39.75505828857422	394.4429931640625	-594.4481811523438	38.15456771850586	494.68359375	-777.3535766601562	31.31941604614258	405.0201416015625	
113	1.12	-758.3453979492188	1023.144897460938	405.2502746582031	-743.0130615234375	1027.219970703125	272.3849792480469	-745.1723022460938	1108.310668945312	335.76171875	-520.1010131835938	1297.800415039062	345.2716369628906	-760.1632080078125	1234.212036132812	334.3340759277344	-720.66455078125	1508.077270507812	347.5683288574219	-543.4264526367188	1408.784301757812	344.0484619140625	-791.8418579101562	1381.451416015625	431.34033203125	-748.874755859375	1453.94677734375	254.3655090332031	-648.1267700195312	1480.691162109375	177.12353515625	-653.7628784179688	1354.065551757812	96.36614227294922	-628.1503295898438	1132.254516601562	78.70723724365234	-719.1234741210938	1123.476684570312	122.6729431152344	-535.104736328125	892.1854248046875	135.4846343994141	-574.4483032226562	867.4959716796875	61.68358612060547	-603.36376953125	1046.602416992188	75.04666900634766	-534.8547973632812	720.9817504882812	134.6318664550781	-565.3796997070312	806.97021484375	71.59679412841797	-516.4412841796875	814.6890869140625	118.0820388793945	-666.0787353515625	1469.803955078125	504.313720703125	-685.7449951171875	1404.824951171875	572.4307250976562	-682.0494384765625	1113.68701171875	614.0103759765625	-735.1663208007812	1095.639526367188	585.7138061523438	-546.1969604492188	894.2997436523438	572.9885864257812	-590.2467651367188	873.5285034179688	639.9642333984375	-670.2965698242188	1058.701416015625	622.4485473632812	-534.8095703125	721.2916870117188	576.5554809570312	-516.6446533203125	802.7748413085938	587.9717407226562	-571.9087524414062	799.7679443359375	638.5569458007812	-662.952880859375	1688.225341796875	409.8408203125	-495.4739074707031	1721.124633789062	291.5448303222656	-527.5177001953125	1719.966796875	431.9837341308594	-618.673828125	1689.45458984375	249.8616027832031	-607.457275390625	940.8499755859375	156.0216064453125	-651.5266723632812	942.8128662109375	538.1797485351562	-557.8426513671875	969.91259765625	487.9710693359375	-533.0855102539062	962.0203857421875	212.9312133789062	-609.4498291015625	493.9368286132812	217.4038238525391	-597.4249877929688	658.6513671875	177.8858795166016	-692.2569580078125	32.61943054199219	222.6115570068359	-675.3857421875	251.6817016601562	209.4387359619141	-486.3793029785156	39.57637786865234	293.8356323242188	-560.93896484375	41.62843704223633	324.8627014160156	-568.4631958007812	35.23266220092773	217.2814636230469	-765.3773193359375	36.6395378112793	272.7979125976562	-642.2171630859375	496.5656127929688	489.9861450195312	-619.9489135742188	786.088623046875	537.365966796875	-726.8700561523438	37.27165985107422	465.4021301269531	-645.5904541015625	354.6965026855469	476.3107299804688	-503.6805725097656	40.42543792724609	439.7667236328125	-565.1699829101562	39.76773452758789	394.4476623535156	-594.4494018554688	38.15289688110352	494.6936950683594	-777.358154296875	31.32441520690918	405.0287170410156	
